# xmcd
#
# Track frame offsets:
#	150
#	26627
#	47694
#	67421
#	89001
#	110368
#	131147
#	152370
#	174389
#	195511
#	215765
#	236546
#
# Disc length: 3362 seconds
#
# Revision: 0
# Processed by: cddbd v1.5.2PL0 Copyright (c) Steve Scherf et al.
# Submitted via: audiograbber 1.83.01
#
DISCID=aa0d200c
DTITLE=Ray Anthony - When You're Smiling
DYEAR=1900
DGENRE=
TTITLE0=When You're Smiling
TTITLE1=Too Marvelous For Words
TTITLE2=Where Or When
TTITLE3=Pennys From Heaven
TTITLE4=It's Only A Paper Moon
TTITLE5=I'm Gonna Sit Right Down And Write Myself A Letter
TTITLE6=On The Sunny Side Of The Street
TTITLE7=Moonglow
TTITLE8=Please Don't Talk About Me When I'm Gone
TTITLE9=Blue Skies
TTITLE10=Ain't She Sweet
TTITLE11=I Can't Believe That You're In Love With Me
EXTD=
EXTT0=
EXTT1=
EXTT2=
EXTT3=
EXTT4=
EXTT5=
EXTT6=
EXTT7=
EXTT8=
EXTT9=
EXTT10=
EXTT11=
PLAYORDER=
